<?xml version="1.0" standalone="no"?>
<!DOCTYPE svg PUBLIC "-//W3C//DTD SVG 20010904//EN"
 "http://www.w3.org/TR/2001/REC-SVG-20010904/DTD/svg10.dtd">
<svg version="1.0" xmlns="http://www.w3.org/2000/svg"
 width="840.000000pt" height="859.000000pt" viewBox="0 0 840.000000 859.000000"
 preserveAspectRatio="xMidYMid meet">

<g transform="translate(0.000000,859.000000) scale(0.100000,-0.100000)"
fill="rgb(156 163 175)" stroke="none">
<path d="M3970 8464 c-19 -2 -93 -9 -165 -15 -71 -6 -206 -24 -300 -39 -856
-146 -1632 -548 -2250 -1165 -618 -619 -1019 -1392 -1165 -2250 -42 -252 -55
-411 -55 -700 0 -289 13 -448 55 -700 210 -1233 959 -2302 2054 -2929 483
-278 1043 -458 1618 -523 190 -21 653 -24 843 -5 1354 135 2550 912 3230 2096
284 496 469 1081 527 1666 17 174 17 616 0 790 -142 1446 -1019 2714 -2317
3350 -452 222 -902 353 -1390 406 -132 14 -609 27 -685 18z m516 -434 c491
-40 934 -161 1369 -375 840 -414 1501 -1133 1839 -2001 124 -319 190 -591 238
-974 8 -64 13 -215 13 -385 0 -341 -25 -568 -96 -865 -258 -1083 -991 -2001
-1994 -2495 -713 -351 -1492 -463 -2292 -330 -227 38 -514 120 -748 213 -918
366 -1673 1106 -2059 2019 -488 1152 -364 2492 327 3523 425 634 1009 1114
1709 1403 352 146 744 236 1173 270 98 8 404 6 521 -3z"/>
<path d="M4170 6729 c-574 -30 -1036 -288 -1317 -734 -51 -80 -129 -252 -163
-357 -36 -112 -84 -348 -73 -358 7 -6 180 -23 678 -66 88 -7 170 -14 181 -14
19 0 23 9 34 81 37 257 164 456 363 572 118 68 213 91 372 91 216 0 353 -51
480 -179 130 -130 188 -280 188 -485 0 -133 -17 -211 -68 -315 -54 -110 -143
-212 -406 -465 -359 -346 -445 -445 -529 -610 -90 -179 -120 -332 -127 -652
l-6 -238 427 0 426 0 0 93 c0 50 5 144 9 208 25 323 95 428 547 826 283 250
422 413 518 608 95 191 126 340 126 600 0 301 -49 494 -182 722 -225 385 -687
642 -1198 669 -58 3 -116 6 -130 8 -14 1 -81 -1 -150 -5z"/>
<path d="M4134 2550 c-231 -35 -434 -216 -483 -430 -18 -76 -13 -210 9 -282
68 -222 313 -398 555 -398 252 0 497 186 560 425 31 122 14 282 -42 389 -42
80 -170 199 -256 240 -109 51 -238 73 -343 56z"/>
</g>
</svg>
